<svg
  id="Layer_1"
  data-name="Layer 1"
  xmlns="http://www.w3.org/2000/svg"
  viewBox="0 0 454.54 96.27"
  fill="white"
><title>audemars-piguet-logo</title><path
    d="M196.76,298.66c-1.09,3.42-1.27,4.07,2.52,4.07,3.57,0,4.91-.15,6.81-3.23.31-.09.62,0,.68.19a24,24,0,0,1-2,4.1c-1.15,0-2.4-.06-3.64-.06s-2.45,0-3.54,0H194c-1.27,0-2.3,0-3.29.09a.52.52,0,0,1,0-.78l.75-.1c1.49-.22,1.8-.53,2.8-3.7l3.64-11.56c.93-2.92,1-3.42-.71-3.67l-.75-.13a.49.49,0,0,1,.19-.78c1.21,0,2.27.09,3.54.09s2.3-.06,3.92-.09a.5.5,0,0,1,0,.78l-1,.13c-1.77.22-1.93.59-2.89,3.67Z"
    transform="translate(-28.73 -207.86)"
  /><path
    d="M215.38,293.48a12.34,12.34,0,0,0-2.3,3.64,9,9,0,0,0,4.17-2.3,3.52,3.52,0,0,0,1.21-2.11.66.66,0,0,0-.72-.71c-.43,0-1.24.28-2.36,1.49m4.94-.59c0,2.36-3.08,3.92-7.55,5.16a7.78,7.78,0,0,0-.44,2.76,1.59,1.59,0,0,0,1.49,1.77c1.12,0,1.89-.62,3.26-1.8a.42.42,0,0,1,.41.53c-1.89,2.33-3.67,2.83-5,2.83-1.86,0-2.52-1.74-2.52-3.26a11.68,11.68,0,0,1,4.63-8.36,6,6,0,0,1,3.73-1.49,2,2,0,0,1,2,1.86"
    transform="translate(-28.73 -207.86)"
  /><path
    d="M239.21,291.27c-.22.75-.19.9,1.15.9,2.24,0,6.21-1.09,6.21-5,0-1.8-1.37-3.11-3.92-3.11-1.18,0-1.24,0-1.52,1Zm-2.73,8.86c-.65,2,.25,2.7,2.49,2.7a5.6,5.6,0,0,0,5.87-5.81c0-2.64-2.27-3.92-4.6-3.92-1.49,0-1.62,0-1.93,1.06ZM238.19,287c.75-2.39.47-2.67-.93-2.77l-1,0c-.22-.15-.16-.59,0-.74a36.85,36.85,0,0,1,5.22-.37,13.6,13.6,0,0,1,5,.75,4,4,0,0,1,2.64,3.92c0,3.14-3.14,4.6-4.85,4.72-.5,0-.28.25,0,.34a4.8,4.8,0,0,1,3.23,4.57,5.59,5.59,0,0,1-1.68,4c-1.31,1.31-3.61,2.36-7.46,2.36-1.68,0-2.83-.09-4.13-.09s-2.3,0-3.2.09a.52.52,0,0,1,0-.78l.62-.09c1.49-.22,1.8-.53,2.8-3.7Z"
    transform="translate(-28.73 -207.86)"
  /><path
    d="M256.28,294l-1.34,3.92h.15a46.82,46.82,0,0,1,3.26-5.25,3.34,3.34,0,0,1,2.27-1.62c1.09,0,1.24,1.06,1.24,1.52a3.85,3.85,0,0,1-.66,1.87c-.37.47-.87.5-1-.15-.15-.81-.34-1.21-.65-1.21s-.62.31-1.09.93c-1.89,2.42-3.64,6.22-5.28,9.79a.56.56,0,0,1-.53.37c-.34,0-1.24-.13-1-.81.4-1.24,2.36-6.75,3.2-9.79.09-.34,0-.65-.25-.65-.81,0-1.64.87-2.2,1.62-.31.06-.53-.12-.5-.5,1-1.68,2.18-3,3.67-3s1,2.11.71,3"
    transform="translate(-28.73 -207.86)"
  /><path
    d="M268,293.85c-2,1.77-3.89,5.84-3.89,8,0,.37.19.59.47.59s1.24-.41,3-2a15,15,0,0,0,4.17-6.71,1.64,1.64,0,0,0-1.56-1.12c-.74,0-1.24.34-2.2,1.21m5.41-3.54a1.3,1.3,0,0,1,1.52.47c-.47,1.15-3.17,8-4.17,10.85-.18.53,0,.71.22.71.53,0,1.43-.53,3.2-2.08a.42.42,0,0,1,.44.4c-1.31,1.74-3.51,3.48-5.22,3.48a.86.86,0,0,1-.9-.84,4,4,0,0,1,.31-1.21l1-2.8-.09,0c-2.21,2.73-5.38,4.88-6.84,4.88-.87,0-1.36-.87-1.36-1.74a16.72,16.72,0,0,1,6.84-10,5.43,5.43,0,0,1,2.8-.9,1.53,1.53,0,0,1,.75.19,1.75,1.75,0,0,1,.62.65Z"
    transform="translate(-28.73 -207.86)"
  /><path
    d="M285.13,292.79a1.09,1.09,0,0,1-.56,1,.51.51,0,0,1-.59-.25,2.41,2.41,0,0,0-1.9-1,1.26,1.26,0,0,0-1.27,1.24,5.32,5.32,0,0,0,1.06,2.83A5.57,5.57,0,0,1,283,300a4.28,4.28,0,0,1-1.62,3,4.77,4.77,0,0,1-3.14,1.12,1.83,1.83,0,0,1-1.89-1.65,1.51,1.51,0,0,1,.46-1,.63.63,0,0,1,.84,0,3.5,3.5,0,0,0,2.15,1.24,1.69,1.69,0,0,0,1.49-1.77,6.35,6.35,0,0,0-1.15-2.73,6.29,6.29,0,0,1-1.09-2.89c0-1.21.53-2.11,1.87-3.26a4,4,0,0,1,2.3-1,1.87,1.87,0,0,1,1.87,1.77"
    transform="translate(-28.73 -207.86)"
  /><path
    d="M294.83,292.79a1.09,1.09,0,0,1-.56,1,.51.51,0,0,1-.59-.25,2.39,2.39,0,0,0-1.89-1,1.26,1.26,0,0,0-1.27,1.24,5.3,5.3,0,0,0,1.06,2.83,5.58,5.58,0,0,1,1.18,3.45,4.31,4.31,0,0,1-1.62,3,4.77,4.77,0,0,1-3.14,1.12,1.83,1.83,0,0,1-1.9-1.65,1.51,1.51,0,0,1,.47-1,.63.63,0,0,1,.84,0,3.5,3.5,0,0,0,2.14,1.24,1.69,1.69,0,0,0,1.49-1.77,6.37,6.37,0,0,0-1.15-2.73,6.28,6.28,0,0,1-1.08-2.89c0-1.21.53-2.11,1.86-3.26a4.05,4.05,0,0,1,2.3-1,1.87,1.87,0,0,1,1.87,1.77"
    transform="translate(-28.73 -207.86)"
  /><path
    d="M300.3,301c-.28.75-.13,1.06.22,1.06s1.71-1,3.33-2.58c2.83-2.8,4.44-6.4,5.47-8.3a1.45,1.45,0,0,1,1.52.56c-.31.84-2.33,5.94-3.64,9.63-.16.4-.19.78.12.78.59,0,2.24-1.46,3-2.42a.43.43,0,0,1,.56.43c-.8,1.49-3.79,3.95-5.44,3.95a.86.86,0,0,1-.78-1.09l2.11-5.69-.06,0c-2.24,2.83-6.09,6.81-7.77,6.81-1.27,0-1.43-1.27-.9-2.64l2.86-7.55c.22-.59.25-.9,0-.9-.59,0-2.21,1.37-3,2.15a.43.43,0,0,1-.53-.47c.81-1.24,3.92-3.7,5.38-3.7.41,0,1.12.41.93.93Z"
    transform="translate(-28.73 -207.86)"
  /><path
    d="M321.49,292.79a1.09,1.09,0,0,1-.56,1,.51.51,0,0,1-.59-.25,2.41,2.41,0,0,0-1.9-1,1.26,1.26,0,0,0-1.27,1.24,5.33,5.33,0,0,0,1.06,2.83,5.56,5.56,0,0,1,1.18,3.45,4.28,4.28,0,0,1-1.62,3,4.77,4.77,0,0,1-3.14,1.12,1.83,1.83,0,0,1-1.89-1.65,1.51,1.51,0,0,1,.47-1,.63.63,0,0,1,.84,0,3.5,3.5,0,0,0,2.14,1.24,1.7,1.7,0,0,0,1.49-1.77,6.35,6.35,0,0,0-1.15-2.73,6.31,6.31,0,0,1-1.09-2.89c0-1.21.53-2.11,1.87-3.26a4,4,0,0,1,2.3-1,1.87,1.87,0,0,1,1.87,1.77"
    transform="translate(-28.73 -207.86)"
  /><path
    d="M88.72,219.71c2.27,0,4.23,2.32,4.23,6v28.56c0,10.5-4.31,9.63-8.85,9.63S79,259.37,79,254.18v-28.5c0-3.65,2-6,4.23-6v-1.48H67.8v1.48c2.27,0,4.31,2.32,4.31,6v30.88c0,6,3.22,10.38,10.76,10.38s12.18-.4,12.18-12.91V225.68c0-3.65,2-6,4.22-6v-1.48H88.72Z"
    transform="translate(-28.73 -207.86)"
  /><path
    d="M415.69,219.71c2.27,0,4.06,2.32,4.06,6v28.56c0,10.5-4.31,9.63-8.85,9.63s-5.07-4.5-5.07-9.69v-28.5c0-3.65,1.88-6,4.14-6v-1.48H394.77v1.48c2.27,0,4.15,2.32,4.15,6v30.88c0,6,3.22,10.38,10.76,10.38s12.18-.4,12.18-12.91V225.68c0-3.65,1.8-6,4.05-6v-1.48H415.69Z"
    transform="translate(-28.73 -207.86)"
  /><path
    d="M118.77,218.23H101.45v1.48c2.27,0,4.15,2.32,4.15,6v32.95c0,3.65-1.88,6-4.15,6V266h19.43c3.13,0,6.73-1.8,8.95-8.18,2.17-6.63,2.43-12,2.13-20.36s-1.75-13.27-3.69-15.77-5-3.5-9.49-3.5m1.06,45.33a21.52,21.52,0,0,1-5.45.26c-1.78-.16-1.87-.42-1.87-4.36V225.25c0-3.94,1-4.9,4.18-4.9,3.95,0,5.67,1.14,7,4.64,2.63,6.77,2.21,19.36,1.47,28.93,0,0-1,8.44-5.33,9.63"
    transform="translate(-28.73 -207.86)"
  /><path
    d="M147.47,263.79c-2.22-.28-2.48-1.26-2.48-4.85V243.16c5,.42,5.47.41,6.74,7h1.34V233.72h-1.34c-1.08,6.24-1.75,6.57-6.74,7V224.62c0-3.58.3-4.22,1.86-4.15l2.89.14c6.83.28,7.18,4.39,7.61,6.77h1.72v-9.16H133.84v1.48c2.26,0,4.23,2.32,4.23,6v32.94c0,3.66-2,6-4.23,6V266h25.55l1.91-8.67h-1.94c-2.25,7.73-8.47,6.53-11.89,6.42"
    transform="translate(-28.73 -207.86)"
  /><path
    d="M441.64,263.79c-2.21-.28-2.48-1.26-2.48-4.85V243.16c5,.43,5.47.41,6.75,7h1.34V233.72H445.9c-1.08,6.24-1.75,6.57-6.75,7V224.62c0-3.58.3-4.22,1.86-4.15l2.89.14c6.83.28,7.18,4.38,7.62,6.77h1.72v-9.16H428.09v1.48c2.27,0,4.15,2.32,4.15,6v32.94c0,3.66-1.88,6-4.15,6V266h25.47l1.91-8.67h-1.93c-2.25,7.73-8.47,6.53-11.89,6.42"
    transform="translate(-28.73 -207.86)"
  /><path
    d="M63.41,207.88H50.27v1.52c3.46,0,3.79,2.56,2.68,5.36C48.54,225.92,37.4,254.13,36.09,257c-1.62,3.6-3.91,7.56-7.36,7.56V266H41.17v-1.47c-2.83,0-3.68-4.15-2.28-7.55s3.87-9.41,3.87-9.41H55.69V258c0,6.3-2.24,6.6-5.41,6.6V266H68.84v-1.47c-2.64,0-5.4-.19-5.4-6.6,0-3.33,0-50.1,0-50.1m-7.72,37.62h-12l12-29.53Z"
    transform="translate(-28.73 -207.86)"
  /><path
    d="M337.68,207.86H315v1.53c3.24,0,5.43,2.18,5.43,6.5v41.53c0,6.63-2.48,7.16-5.42,7.16V266h18.56v-1.47c-3.35,0-5.33-.73-5.33-7.12V240.31h9.9c3.19,0,5.66-2.31,5.66-7.57V215.11c0-4.19-2.07-7.24-6.14-7.24M336.2,235.7c0,1.56-.56,2.4-1.71,2.4h-6.23V210h6.23c1.15,0,1.71.91,1.71,2.74Z"
    transform="translate(-28.73 -207.86)"
  /><path
    d="M184.67,251.66l-9.24-33.43H163.24v1.48c3.06,0,4.31,1,4.31,6.1v32.81c0,3.66-1.75,6-4.24,6V266h10.76v-1.47c-2.49,0-4.25-2.3-4.25-6V224.2L181.55,266h1.15l12.15-41.7v34.27c0,3.66-1.76,6-4.25,6V266h15.62v-1.47c-2.48,0-4.33-2.3-4.33-6V225.68c0-3.65,1.84-6,4.33-6v-1.48H194.47l-9.62,32.66"
    transform="translate(-28.73 -207.86)"
  /><path
    d="M267.9,262.07l-8-18.81c2.52-.59,5.72-1.56,5.72-6,0-4.76-.11-9.78-.11-13.1,0-5.94-5.45-5.94-11-5.94H239.87v1.48c2.26,0,4.13,2.32,4.13,6v32.94c0,3.65-2.44,6-4.2,6h0V266h15.35v-1.47c-2.25,0-4.22-2.3-4.22-6V243.8h2.28l7.9,19.63a5.68,5.68,0,0,0,1.2,1.95,3.6,3.6,0,0,0,2.29.67h5.71v-1.47c-.52,0-1.18.36-2.4-2.51m-8.78-25.52c0,5.72-6.07,4.93-8.2,5v-18c0-1.91.07-2.89,1.78-2.89,3.25,0,6.42-.54,6.42,3.94Z"
    transform="translate(-28.73 -207.86)"
  /><path
    d="M348,219.71c2.83,0,4.14,2.32,4.14,6v32.94c0,3.66-1.31,6-4.14,6V266h15.18v-1.47c-2.83,0-4.13-2.3-4.13-6V225.68c0-3.65,1.3-6,4.13-6v-1.48H348Z"
    transform="translate(-28.73 -207.86)"
  /><path
    d="M286.11,236.56c-5.27-2.74-7.28-6.32-7.28-9.41,0-1.69.71-7.91,4.92-7.91,6.41.07,8.42,9.16,9.12,13.13h1.26V217.5h-1.41c-.07,1.63-.67,2-1.43,2-2.39-.07-3.1-2.86-9.3-2.6-4,.17-9,3.68-9,13.24,0,4.35,1.67,10.47,7,14.11,7.8,5.28,10.28,7.38,10.28,11.45,0,1.69-.49,8.76-6.71,8.76-4.4,0-7.3-7.24-7.87-10l-1-4.91h-1.41v16.74h1.46c.15-1.33.5-2.06,1.07-2.06,2.3,0,4.65,2.44,8.72,2.39,10.33-.13,12.16-8.88,12.16-13.8,0-6.75-3.21-12.51-10.57-16.3"
    transform="translate(-28.73 -207.86)"
  /><path
    d="M383,241.89v1.24s2.09.19,2.09,3.53v11.19c0,6-2.06,6.45-5.71,6.45s-5.09-1.34-5.09-5.9V225.44c0-3.12,1.61-5.79,5.46-5.79,4.27,0,8.83,4.28,8.83,12.55H391V217.48h-1.75c0,5.63-3.34-.16-9.21-.16-4.26,0-7.77,1.09-9.77,3.36a12.05,12.05,0,0,0-3,8.34v25.85a11.79,11.79,0,0,0,3,8.27c2,2.34,6.49,3.52,9.39,3.52a14.64,14.64,0,0,0,5.32-1.22,10.64,10.64,0,0,0,3.33-2.59,12,12,0,0,0,3.12-8.27v-8c0-3.18,2.1-3.45,2.1-3.45v-1.24Z"
    transform="translate(-28.73 -207.86)"
  /><path
    d="M217,249.2l4.7-21.5,4,21.5Zm18.4,12.08-8.87-43.22h-8.56v1.52c3,0,2.56,2.41,2,5.39l-7.82,35c-1,4-2.22,4.65-3.41,4.65V266h8.12v-1.47c-3,0-3.08-2.47-2.2-6.15l1.85-7h9.82l1.87,8.6c1,3.83-.57,4.52-2.4,4.52V266h12.32v-1.47h0c-.74,0-2-.32-2.73-3.29"
    transform="translate(-28.73 -207.86)"
  /><path
    d="M456.38,218.23v9.16H458c.21-1.83.62-4.52,2.28-5.59s3.36-1,6.12-1v37.82c0,3.65-1.79,6-4.06,6V266h15.12v-1.47c-2.27,0-4.15-2.3-4.15-6V220.89s0,0,0-.08c2.76,0,4.46-.06,6.12,1s2.07,3.76,2.28,5.59h1.58v-9.16Z"
    transform="translate(-28.73 -207.86)"
  /></svg>
