<svg
  id="chplusplus_logo"
  width="101"
  height="30"
  xmlns="http://www.w3.org/2000/svg"
  xmlns:xlink="http://www.w3.org/1999/xlink"
  viewBox="0 0 101 30"
  shape-rendering="geometricPrecision"
  text-rendering="geometricPrecision"
  fill="white"
><style
  ><![CDATA[#egiqx4ue1ymw4 {animation: egiqx4ue1ymw4_c_o 3000ms linear 1 normal forwards}@keyframes egiqx4ue1ymw4_c_o { 0% {opacity: 0} 6.666667% {opacity: 0} 23.333333% {opacity: 1} 100% {opacity: 1} }#egiqx4ue1ymw5 {animation: egiqx4ue1ymw5_c_o 3000ms linear 1 normal forwards}@keyframes egiqx4ue1ymw5_c_o { 0% {opacity: 0} 20% {opacity: 0} 36.666667% {opacity: 1} 100% {opacity: 1} }]]></style><g
    id="egiqx4ue1ymw2"
    transform="matrix(1 0 0 1 0.00300000002608 0)"
  ><path
      id="egiqx4ue1ymw3"
      d="M11.526172,29.993408C15.181268,29.993408,18.339164,29.005722,20.999858,27.030350C23.660553,25.054977,25.555291,22.226298,26.684070,18.544311L26.684070,18.544311L21.241740,18.544311C20.462344,20.667501,19.259656,22.313644,17.633676,23.482742C16.007696,24.651840,14.159991,25.236389,12.090562,25.236389C9.510494,25.236389,7.696384,24.302454,6.648232,22.434586C5.600079,20.566716,5.438825,17.912730,6.164469,14.472626C6.782610,11.516286,8.032330,9.151215,9.913630,7.377411C11.794929,5.630483,13.971861,4.757019,16.444426,4.757019C18.271974,4.757019,19.736700,5.240784,20.838604,6.208313C21.940508,7.175842,22.558649,8.613698,22.693028,10.521881L22.693028,10.521881L28.175672,10.521881C28.175672,7.135529,27.140957,4.528575,25.071528,2.701019C23.002098,0.900340,20.287652,0,16.928189,0C12.896833,0,9.376116,1.290039,6.366037,3.870117C3.329082,6.450195,1.394031,9.809672,0.560884,13.948547C-0.514144,19.028076,-0.043819,22.965383,1.971859,25.760467C3.987537,28.582428,7.172308,29.993408,11.526172,29.993408ZM33.174553,29.348388L35.794934,17.093017L49.138722,17.093017L46.518341,29.348388L51.960671,29.348388L58.088332,0.645020L52.646002,0.645020L50.186875,12.174744L36.843087,12.174744L39.302214,0.645020L33.859884,0.645020L27.732223,29.348388L33.174553,29.348388Z"
      fill="white"
      stroke="none"
      stroke-width="1"
    /><path
      id="egiqx4ue1ymw4"
      d="M13.994726,-0L12.573000,6.671000L19.182597,6.671061L18.130498,11.589453L11.526000,11.589000L10.105471,18.259723L5.187871,18.259723L6.606000,11.588000L-0,11.588662L1.050735,6.671852L7.651000,6.671000L9.070534,-0L13.994726,-0Z"
      transform="matrix(1 0 0 1 59.36999893188477 5.51700019836426)"
      opacity="0"
      fill="white"
      fill-rule="evenodd"
      stroke="none"
      stroke-width="1"
    /><path
      id="egiqx4ue1ymw5"
      d="M13.994726,-0L12.573000,6.671000L19.182597,6.671061L18.130498,11.589453L11.526000,11.589000L10.105471,18.259723L5.187871,18.259723L6.606000,11.588000L0,11.588662L1.050735,6.671852L7.651000,6.671000L9.070534,-0L13.994726,-0Z"
      transform="matrix(1 0 0 1 80.30500030517578 5.51700019836426)"
      opacity="0"
      fill="white"
      fill-rule="evenodd"
      stroke="none"
      stroke-width="1"
    /></g></svg>
